<?xml version="1.0" encoding="utf-8"?>
<!-- Generator: Adobe Illustrator 23.0.0, SVG Export Plug-In . SVG Version: 6.00 Build 0)  -->
<svg version="1.1" id="Layer_1" xmlns="http://www.w3.org/2000/svg" xmlns:xlink="http://www.w3.org/1999/xlink" x="0px" y="0px"
	 viewBox="0 0 179 23" style="enable-background:new 0 0 179 23;" xml:space="preserve">
<style type="text/css">
	.st0{fill-rule:evenodd;clip-rule:evenodd;fill:#40C252;}
	.st1{fill-rule:evenodd;clip-rule:evenodd;}
	.st2{fill-rule:evenodd;clip-rule:evenodd;fill:#FCFDFF;}
</style>
<title>Logo</title>
<desc>Created with Sketch.</desc>
<g id="Page-1">
	<g id="wireframe" transform="translate(-195.000000, -37.000000)">
		<g id="Logo" transform="translate(195.000000, 37.348441)">
			<path id="Fill-1" class="st0" d="M20,11.1c1,0,1.8-0.2,2.4-0.7c0.6-0.5,0.9-1.1,0.9-2V8.3c0-0.9-0.3-1.6-0.9-2
				C21.8,5.9,21,5.6,20,5.6h-2.7v5.5H20z M5,11.2C5,5.4,9.6,0.8,15.4,0.8l5,0c1.3,0,2.5,0.2,3.5,0.5s2,0.8,2.7,1.4
				c0.7,0.6,1.3,1.4,1.7,2.3c0.4,0.9,0.6,1.9,0.6,3v0.1c0,1.2-0.2,2.3-0.7,3.2c-0.4,0.9-1,1.7-1.8,2.3c-0.8,0.6-1.7,1.1-2.8,1.4
				c-1.1,0.3-2.3,0.5-3.5,0.5h-2.8v5.9h-2C9.6,21.4,5,16.8,5,11.2z"/>
			<path id="Fill-3" class="st0" d="M37.6,18.3c0.8,0,1.5-0.2,2-0.7c0.5-0.5,0.8-1.1,0.8-1.9v-0.7c-0.3-0.1-0.6-0.2-1-0.3
				c-0.4-0.1-0.8-0.1-1.2-0.1c-0.8,0-1.5,0.2-1.9,0.5c-0.4,0.4-0.7,0.8-0.7,1.4v0.1c0,0.6,0.2,1,0.6,1.3
				C36.5,18.1,37,18.3,37.6,18.3 M35.6,21.8c-0.8,0-1.5-0.1-2.1-0.3c-0.6-0.2-1.2-0.5-1.7-0.9c-0.5-0.4-0.9-0.9-1.1-1.5
				c-0.3-0.6-0.4-1.3-0.4-2.1v-0.1c0-0.8,0.1-1.5,0.5-2.2c0.3-0.6,0.7-1.1,1.3-1.6c0.5-0.4,1.2-0.7,2-0.9c0.8-0.2,1.6-0.3,2.6-0.3
				c0.7,0,1.5,0.1,2.1,0.2c0.7,0.1,1.2,0.3,1.7,0.4v-0.3c0-0.8-0.3-1.5-0.8-1.9c-0.5-0.5-1.3-0.7-2.4-0.7c-0.8,0-1.6,0.1-2.3,0.2
				c-0.7,0.2-1.4,0.4-2.1,0.6l-1.1-3.9c0.9-0.4,1.9-0.7,2.9-0.9c1-0.2,2.2-0.3,3.6-0.3c1.4,0,2.6,0.2,3.6,0.5c1,0.3,1.8,0.8,2.4,1.4
				c0.6,0.6,1,1.3,1.3,2.1c0.3,0.8,0.4,1.8,0.4,2.9v9.1h-5.5v-1.6c-0.5,0.6-1.2,1.1-2,1.4C37.5,21.6,36.6,21.8,35.6,21.8"/>
			<path id="Fill-5" class="st0" d="M48.6,5.5h5.6v2.2c0.3-0.3,0.5-0.7,0.8-1c0.3-0.3,0.7-0.6,1-0.8c0.4-0.2,0.8-0.4,1.3-0.6
				c0.5-0.1,1-0.2,1.5-0.2c1.7,0,3,0.5,4,1.6c1,1,1.4,2.5,1.4,4.3v10.4h-5.6v-8.6c0-0.9-0.2-1.5-0.6-2c-0.4-0.4-0.9-0.7-1.6-0.7
				c-0.7,0-1.2,0.2-1.7,0.7c-0.4,0.5-0.7,1.1-0.7,2v8.6h-5.6V5.5z"/>
			<path id="Fill-7" class="st0" d="M75.3,17.1c0.4,0,0.9-0.1,1.3-0.3c0.4-0.2,0.7-0.4,1-0.7c0.3-0.3,0.5-0.7,0.7-1.1
				c0.2-0.4,0.2-0.9,0.2-1.4v-0.1c0-0.5-0.1-1-0.2-1.4c-0.2-0.4-0.4-0.8-0.7-1.1s-0.6-0.6-1-0.7c-0.4-0.2-0.8-0.3-1.3-0.3
				c-0.4,0-0.9,0.1-1.3,0.3c-0.4,0.2-0.7,0.4-1,0.7c-0.3,0.3-0.5,0.7-0.7,1.1c-0.2,0.4-0.3,0.9-0.3,1.5v0.1c0,0.5,0.1,1,0.3,1.4
				c0.2,0.4,0.4,0.8,0.7,1.1c0.3,0.3,0.6,0.6,1,0.7C74.4,17,74.8,17.1,75.3,17.1 M73.6,21.8c-0.9,0-1.8-0.2-2.7-0.6
				c-0.9-0.4-1.6-0.9-2.2-1.6C68,18.9,67.5,18,67.2,17c-0.4-1-0.6-2.2-0.6-3.4v-0.1c0-1.3,0.2-2.4,0.6-3.5c0.4-1,0.9-1.9,1.5-2.6
				s1.4-1.3,2.2-1.6c0.8-0.4,1.7-0.6,2.7-0.6c1.2,0,2.2,0.2,2.9,0.7c0.8,0.5,1.4,1,1.9,1.6V0H84v21.4h-5.6l0-2.1
				c-0.5,0.7-1.2,1.2-1.9,1.7C75.7,21.5,74.8,21.8,73.6,21.8"/>
			<path id="Fill-9" class="st0" d="M93.5,18.3c0.8,0,1.5-0.2,2-0.7c0.5-0.5,0.8-1.1,0.8-1.9v-0.7c-0.3-0.1-0.6-0.2-1-0.3
				c-0.4-0.1-0.8-0.1-1.2-0.1c-0.8,0-1.5,0.2-1.9,0.5c-0.4,0.4-0.7,0.8-0.7,1.4v0.1c0,0.6,0.2,1,0.6,1.3
				C92.5,18.1,93,18.3,93.5,18.3 M91.5,21.8c-0.8,0-1.5-0.1-2.1-0.3c-0.6-0.2-1.2-0.5-1.7-0.9c-0.5-0.4-0.9-0.9-1.1-1.5
				c-0.3-0.6-0.4-1.3-0.4-2.1v-0.1c0-0.8,0.1-1.5,0.5-2.2c0.3-0.6,0.7-1.1,1.3-1.6c0.5-0.4,1.2-0.7,2-0.9c0.8-0.2,1.6-0.3,2.6-0.3
				c0.7,0,1.5,0.1,2.1,0.2c0.7,0.1,1.2,0.3,1.7,0.4v-0.3c0-0.8-0.3-1.5-0.8-1.9c-0.5-0.5-1.3-0.7-2.4-0.7c-0.8,0-1.6,0.1-2.3,0.2
				c-0.7,0.2-1.4,0.4-2.1,0.6l-1.1-3.9c0.9-0.4,1.9-0.7,2.9-0.9c1-0.2,2.2-0.3,3.6-0.3c1.4,0,2.6,0.2,3.6,0.5c1,0.3,1.8,0.8,2.4,1.4
				c0.6,0.6,1,1.3,1.3,2.1c0.3,0.8,0.4,1.8,0.4,2.9v9.1h-5.5v-1.6c-0.6,0.6-1.2,1.1-2,1.4C93.5,21.6,92.6,21.8,91.5,21.8"/>
			<path id="Fill-11" class="st1" d="M113.2,11.1c1,0,1.8-0.2,2.4-0.7c0.6-0.5,0.9-1.1,0.9-2V8.3c0-0.9-0.3-1.6-0.9-2
				c-0.6-0.5-1.4-0.7-2.4-0.7h-2.7v5.5H113.2z M104.9,0.9h8.8c1.3,0,2.5,0.2,3.5,0.5c1.1,0.3,2,0.8,2.7,1.4c0.7,0.6,1.3,1.4,1.7,2.3
				c0.4,0.9,0.6,1.9,0.6,3v0.1c0,1.2-0.2,2.3-0.7,3.2c-0.4,0.9-1,1.7-1.8,2.3c-0.8,0.6-1.7,1.1-2.8,1.4c-1.1,0.3-2.3,0.5-3.5,0.5
				h-2.8v5.9h-5.7V0.9z"/>
			<path id="Fill-13" class="st1" d="M124.4,21.4h5.6V5.5h-5.6V21.4z M124.3,4.1h5.8V0h-5.8V4.1z"/>
			<path id="Fill-15" class="st1" d="M139.4,21.7c-1.7,0-3-0.4-4-1.2c-0.9-0.8-1.4-2.2-1.4-4V10h-1.9V5.5h1.9v-4h5.6v4h3.7V10h-3.7
				v5.4c0,0.6,0.1,1,0.4,1.2c0.3,0.2,0.6,0.4,1.1,0.4c0.4,0,0.7,0,1.1-0.1c0.4-0.1,0.7-0.2,1-0.4v4.4c-0.5,0.3-1.1,0.5-1.7,0.7
				C140.9,21.6,140.2,21.7,139.4,21.7"/>
			<path id="Fill-16" class="st1" d="M153.3,21.8c-1.2,0-2.3-0.2-3.3-0.7s-1.9-1-2.6-1.8c-0.7-0.7-1.3-1.6-1.7-2.6
				c-0.4-1-0.6-2.1-0.6-3.2v-0.1c0-1.1,0.2-2.2,0.6-3.2c0.4-1,1-1.9,1.7-2.6c0.7-0.8,1.6-1.4,2.7-1.8c1-0.4,2.2-0.7,3.4-0.7
				c1.6,0,3,0.3,4.1,1c1.1,0.6,2,1.5,2.7,2.6l-3.8,2.8c-0.4-0.5-0.8-0.9-1.3-1.2c-0.5-0.3-1-0.4-1.7-0.4c-0.4,0-0.9,0.1-1.2,0.3
				c-0.4,0.2-0.7,0.4-1,0.8c-0.3,0.3-0.5,0.7-0.6,1.1c-0.2,0.4-0.2,0.9-0.2,1.4v0.1c0,0.5,0.1,1,0.2,1.4c0.2,0.4,0.4,0.8,0.6,1.1
				c0.3,0.3,0.6,0.6,1,0.8c0.4,0.2,0.8,0.3,1.3,0.3c0.7,0,1.2-0.1,1.7-0.4c0.5-0.3,0.9-0.7,1.4-1.2l3.7,2.7c-0.7,1.1-1.7,2-2.8,2.6
				C156.5,21.4,155.1,21.8,153.3,21.8"/>
			<path id="Fill-17" class="st1" d="M162.4,0h5.6v7.7c0.5-0.7,1.1-1.3,1.9-1.8c0.8-0.5,1.7-0.8,2.8-0.8c1.7,0,3,0.5,4,1.6
				c1,1,1.4,2.5,1.4,4.3v10.4h-5.6v-8.6c0-0.9-0.2-1.5-0.6-2c-0.4-0.4-0.9-0.7-1.6-0.7c-0.7,0-1.2,0.2-1.7,0.7
				c-0.4,0.5-0.7,1.1-0.7,2v8.6h-5.6V0z"/>
			<path id="Fill-18" class="st1" d="M12.6,8.1c-1.4,0-2.5-1.1-2.5-2.5c0-1.4,1.1-2.5,2.5-2.5c1.4,0,2.5,1.1,2.5,2.5
				C15.1,7,14,8.1,12.6,8.1"/>
			<path id="Fill-19" class="st1" d="M12.6,19c-1.4,0-2.5-1.1-2.5-2.5c0-1.4,1.1-2.5,2.5-2.5c1.4,0,2.5,1.1,2.5,2.5
				C15.1,17.9,14,19,12.6,19"/>
			<path id="Fill-20" class="st2" d="M7.2,18.3c-4,0-7.2-3.2-7.2-7.2c0-4,3.2-7.2,7.2-7.2s7.2,3.2,7.2,7.2
				C14.5,15.1,11.2,18.3,7.2,18.3"/>
			<g id="Group-23" transform="translate(5.524691, 6.207132)">
				<path id="Fill-21" class="st1" d="M1.9,3.7C0.8,3.1,0.3,1.8,0.8,0.9c0.5-0.9,1.9-1.1,3-0.5c1.1,0.6,1.6,1.9,1.1,2.8
					C4.3,4.2,3,4.4,1.9,3.7"/>
				<path id="Fill-22" class="st1" d="M3.8,9.3c1.1-0.6,1.6-1.9,1.1-2.8C4.3,5.6,3,5.4,1.9,6C0.8,6.6,0.3,7.9,0.8,8.8
					S2.7,9.9,3.8,9.3"/>
			</g>
		</g>
	</g>
</g>
</svg>
