<?xml version="1.0" encoding="utf-8"?>
<!-- Generator: Adobe Illustrator 16.0.0, SVG Export Plug-In . SVG Version: 6.00 Build 0)  -->
<!DOCTYPE svg PUBLIC "-//W3C//DTD SVG 1.1//EN" "http://www.w3.org/Graphics/SVG/1.1/DTD/svg11.dtd">
<svg version="1.1" id="Layer_1" xmlns="http://www.w3.org/2000/svg" xmlns:xlink="http://www.w3.org/1999/xlink" x="0px" y="0px"
	 width="603.5px" height="84px" viewBox="8.5 353.5 603.5 84" enable-background="new 8.5 353.5 603.5 84" xml:space="preserve">
<title>Logo</title>
<desc>Created with Sketch.</desc>
<g id="Page-1">
	<g id="wireframe" transform="translate(-195.000000, -37.000000)">
		<g id="Logo" transform="translate(195.000000, 37.348441)">
			<path id="Fill-1" fill="#C1C0BE" d="M68.38,395.475c3.419,0,6.154-0.684,8.206-2.393c2.051-1.71,3.077-3.761,3.077-6.838v-0.342
				c0-3.077-1.026-5.47-3.077-6.838s-4.787-2.394-8.206-2.394h-9.231v18.805H68.38z M17.095,395.818
				c0-19.831,15.727-35.558,35.557-35.558h17.095c4.445,0,8.547,0.684,11.966,1.709c3.419,1.026,6.838,2.735,9.231,4.787
				c2.393,2.052,4.445,4.787,5.812,7.864c1.368,3.077,2.052,6.496,2.052,10.257v0.342c0,4.103-0.684,7.864-2.394,10.941
				c-1.368,3.077-3.419,5.813-6.154,7.863c-2.735,2.052-5.812,3.761-9.573,4.787c-3.761,1.025-7.864,1.709-11.967,1.709h-9.573
				v20.172h-6.838C32.822,430.691,17.095,414.964,17.095,395.818z"/>
			<path id="Fill-3" fill="#C1C0BE" d="M128.554,420.092c2.735,0,5.128-0.684,6.838-2.394c1.709-1.709,2.735-3.761,2.735-6.496
				v-2.393c-1.026-0.342-2.051-0.685-3.419-1.026s-2.735-0.342-4.103-0.342c-2.735,0-5.128,0.684-6.496,1.71
				c-1.368,1.367-2.393,2.735-2.393,4.786v0.342c0,2.052,0.684,3.419,2.051,4.445C124.793,419.408,126.503,420.092,128.554,420.092
				 M121.716,432.059c-2.735,0-5.128-0.342-7.18-1.026c-2.051-0.684-4.103-1.709-5.812-3.076c-1.709-1.368-3.077-3.077-3.761-5.129
				c-1.025-2.052-1.367-4.444-1.367-7.18v-0.342c0-2.735,0.342-5.129,1.709-7.522c1.025-2.051,2.393-3.761,4.444-5.47
				c1.709-1.368,4.103-2.394,6.838-3.077c2.735-0.685,5.47-1.026,8.889-1.026c2.394,0,5.128,0.342,7.18,0.685
				c2.394,0.342,4.103,1.025,5.813,1.367v-1.025c0-2.735-1.026-5.129-2.735-6.497c-1.709-1.709-4.444-2.393-8.206-2.393
				c-2.735,0-5.47,0.342-7.863,0.684c-2.394,0.684-4.787,1.368-7.18,2.052l-3.761-13.334c3.077-1.368,6.496-2.393,9.915-3.077
				c3.419-0.684,7.522-1.025,12.308-1.025c4.787,0,8.89,0.684,12.309,1.709c3.419,1.025,6.154,2.735,8.206,4.787
				s3.419,4.445,4.445,7.18c1.025,2.735,1.368,6.154,1.368,9.916v31.112h-18.805v-5.47c-1.709,2.051-4.103,3.761-6.838,4.786
				C128.212,431.375,125.135,432.059,121.716,432.059"/>
			<path id="Fill-5" fill="#C1C0BE" d="M166.163,376.329h19.146v7.522c1.025-1.026,1.709-2.394,2.735-3.419
				c1.025-1.026,2.393-2.052,3.419-2.735c1.367-0.684,2.735-1.368,4.444-2.051c1.709-0.342,3.419-0.684,5.128-0.684
				c5.813,0,10.257,1.709,13.676,5.471c3.419,3.419,4.787,8.547,4.787,14.702v35.557h-19.146v-29.403
				c0-3.077-0.684-5.128-2.051-6.838c-1.368-1.367-3.077-2.393-5.471-2.393c-2.393,0-4.103,0.684-5.812,2.393
				c-1.368,1.71-2.394,3.761-2.394,6.838v29.403h-19.146v-54.362H166.163z"/>
			<path id="Fill-7" fill="#C1C0BE" d="M257.45,415.989c1.368,0,3.077-0.342,4.445-1.025c1.368-0.685,2.393-1.368,3.419-2.394
				c1.026-1.026,1.709-2.394,2.393-3.761c0.684-1.368,0.684-3.077,0.684-4.787v-0.342c0-1.709-0.342-3.419-0.684-4.786
				c-0.684-1.368-1.367-2.735-2.393-3.761s-2.051-2.051-3.419-2.394c-1.368-0.684-2.735-1.025-4.445-1.025
				c-1.368,0-3.077,0.342-4.445,1.025c-1.367,0.684-2.393,1.368-3.419,2.394c-1.025,1.026-1.709,2.393-2.393,3.761
				c-0.684,1.367-1.026,3.077-1.026,5.128v0.342c0,1.71,0.342,3.419,1.026,4.787c0.684,1.367,1.368,2.735,2.393,3.761
				c1.026,1.025,2.052,2.052,3.419,2.394C254.373,415.648,255.741,415.989,257.45,415.989 M251.638,432.059
				c-3.077,0-6.154-0.684-9.231-2.052c-3.077-1.367-5.47-3.077-7.522-5.471c-2.393-2.393-4.103-5.47-5.128-8.889
				c-1.368-3.419-2.051-7.522-2.051-11.625v-0.342c0-4.444,0.684-8.206,2.051-11.966c1.368-3.419,3.077-6.496,5.128-8.89
				c2.052-2.393,4.787-4.445,7.522-5.47c2.735-1.368,5.812-2.051,9.231-2.051c4.103,0,7.521,0.684,9.915,2.393
				c2.735,1.709,4.787,3.419,6.496,5.47v-25.642h19.146v73.166h-19.146v-7.18c-1.709,2.394-4.103,4.103-6.496,5.813
				C258.818,431.032,255.741,432.059,251.638,432.059"/>
			<path id="Fill-9" fill="#C1C0BE" d="M319.676,420.092c2.735,0,5.129-0.684,6.838-2.394c1.71-1.709,2.735-3.761,2.735-6.496
				v-2.393c-1.025-0.342-2.051-0.685-3.419-1.026c-1.367-0.342-2.735-0.342-4.103-0.342c-2.735,0-5.129,0.684-6.496,1.71
				c-1.368,1.367-2.394,2.735-2.394,4.786v0.342c0,2.052,0.684,3.419,2.052,4.445C316.257,419.408,317.967,420.092,319.676,420.092
				 M312.838,432.059c-2.735,0-5.128-0.342-7.18-1.026c-2.051-0.684-4.103-1.709-5.813-3.076c-1.709-1.368-3.077-3.077-3.761-5.129
				c-1.026-2.052-1.368-4.444-1.368-7.18v-0.342c0-2.735,0.342-5.129,1.709-7.522c1.026-2.051,2.394-3.761,4.445-5.47
				c1.709-1.368,4.103-2.394,6.838-3.077c2.734-0.685,5.47-1.026,8.889-1.026c2.394,0,5.129,0.342,7.18,0.685
				c2.394,0.342,4.104,1.025,5.813,1.367v-1.025c0-2.735-1.025-5.129-2.735-6.497c-1.709-1.709-4.444-2.393-8.205-2.393
				c-2.735,0-5.471,0.342-7.864,0.684c-2.393,0.684-4.786,1.368-7.18,2.052l-3.761-13.334c3.077-1.368,6.496-2.393,9.915-3.077
				c3.419-0.684,7.521-1.025,12.309-1.025c4.786,0,8.89,0.684,12.309,1.709c3.419,1.025,6.154,2.735,8.205,4.787
				c2.052,2.051,3.419,4.445,4.445,7.18c1.025,2.735,1.367,6.154,1.367,9.916v31.112h-18.805v-5.47
				c-2.051,2.051-4.103,3.761-6.838,4.786C319.676,431.375,316.599,432.059,312.838,432.059"/>
			<path id="Fill-11" fill="#C1C0BE" d="M387.03,395.475c3.419,0,6.154-0.684,8.205-2.393c2.052-1.71,3.077-3.761,3.077-6.838
				v-0.342c0-3.077-1.025-5.47-3.077-6.838c-2.051-1.709-4.786-2.394-8.205-2.394h-9.231v18.805H387.03z M358.652,360.602h30.087
				c4.445,0,8.548,0.684,11.967,1.709c3.761,1.025,6.838,2.735,9.231,4.787c2.394,2.051,4.444,4.786,5.813,7.863
				c1.367,3.077,2.051,6.496,2.051,10.257v0.342c0,4.103-0.684,7.864-2.393,10.941c-1.368,3.077-3.419,5.813-6.154,7.863
				c-2.735,2.052-5.813,3.761-9.573,4.787c-3.761,1.025-7.864,1.709-11.967,1.709h-9.573v20.172h-19.488V360.602L358.652,360.602z"
				/>
			<path id="Fill-13" fill="#C1C0BE" d="M425.323,430.691h19.146v-54.362h-19.146V430.691z M424.981,371.542h19.83v-14.018h-19.83
				V371.542z"/>
			<path id="Fill-15" fill="#C1C0BE" d="M476.607,431.717c-5.812,0-10.257-1.368-13.676-4.104
				c-3.077-2.734-4.786-7.521-4.786-13.676v-22.223h-6.496v-15.386h6.496v-13.676h19.146v13.676h12.65v15.386h-12.65v18.462
				c0,2.052,0.342,3.419,1.367,4.103c1.025,0.685,2.052,1.368,3.761,1.368c1.368,0,2.394,0,3.761-0.342
				c1.368-0.342,2.394-0.685,3.419-1.368v15.044c-1.709,1.025-3.761,1.709-5.812,2.394
				C481.736,431.375,479.343,431.717,476.607,431.717"/>
			<path id="Fill-16" fill="#C1C0BE" d="M524.132,432.059c-4.103,0-7.863-0.684-11.282-2.394c-3.42-1.71-6.496-3.419-8.89-6.154
				c-2.394-2.394-4.445-5.471-5.813-8.89s-2.052-7.18-2.052-10.94v-0.342c0-3.761,0.685-7.521,2.052-10.941
				c1.367-3.419,3.419-6.496,5.813-8.889c2.394-2.735,5.47-4.787,9.231-6.154c3.419-1.368,7.521-2.394,11.624-2.394
				c5.471,0,10.257,1.026,14.019,3.419c3.761,2.052,6.838,5.129,9.23,8.89l-12.992,9.573c-1.367-1.709-2.735-3.077-4.444-4.103
				c-1.71-1.025-3.419-1.368-5.813-1.368c-1.367,0-3.077,0.342-4.103,1.026c-1.367,0.684-2.394,1.368-3.419,2.735
				c-1.025,1.026-1.71,2.393-2.052,3.761c-0.684,1.367-0.684,3.077-0.684,4.786v0.342c0,1.71,0.342,3.419,0.684,4.787
				c0.684,1.367,1.368,2.734,2.052,3.761c1.025,1.025,2.052,2.051,3.419,2.735c1.367,0.684,2.735,1.025,4.444,1.025
				c2.394,0,4.104-0.342,5.813-1.367c1.71-1.026,3.077-2.394,4.786-4.104l12.65,9.231c-2.393,3.761-5.812,6.838-9.573,8.89
				C535.072,430.691,530.286,432.059,524.132,432.059"/>
			<path id="Fill-17" fill="#C1C0BE" d="M555.245,357.525h19.146v26.326c1.71-2.394,3.762-4.445,6.496-6.154
				c2.735-1.709,5.813-2.735,9.573-2.735c5.813,0,10.257,1.709,13.677,5.471c3.419,3.419,4.786,8.547,4.786,14.702v35.557h-19.146
				v-29.403c0-3.077-0.684-5.128-2.052-6.838c-1.367-1.367-3.076-2.393-5.47-2.393s-4.103,0.684-5.813,2.393
				c-1.367,1.71-2.394,3.761-2.394,6.838v29.403h-19.146v-73.166H555.245z"/>
			<path id="Fill-18" fill="#C1C0BE" d="M43.079,385.218c-4.786,0-8.547-3.761-8.547-8.548s3.761-8.547,8.547-8.547
				c4.787,0,8.548,3.761,8.548,8.547S47.866,385.218,43.079,385.218"/>
			<path id="Fill-19" fill="#C1C0BE" d="M43.079,422.486c-4.786,0-8.547-3.761-8.547-8.548c0-4.786,3.761-8.547,8.547-8.547
				c4.787,0,8.548,3.761,8.548,8.547C51.627,418.725,47.866,422.486,43.079,422.486"/>
			<path id="Fill-20" fill="#FCFDFF" d="M24.617,420.092C10.941,420.092,0,409.152,0,395.475c0-13.676,10.941-24.617,24.617-24.617
				c13.676,0,24.617,10.941,24.617,24.617C49.575,409.152,38.293,420.092,24.617,420.092"/>
			<g id="Group-23" transform="translate(5.524691, 6.207132)">
				<path id="Fill-21" fill="#C1C0BE" d="M19.86,385.19c-3.761-2.051-5.47-6.496-3.761-9.573c1.709-3.077,6.496-3.761,10.257-1.709
					c3.761,2.052,5.471,6.496,3.761,9.573C28.066,386.899,23.621,387.583,19.86,385.19"/>
				<path id="Fill-22" fill="#C1C0BE" d="M26.356,404.336c3.761-2.052,5.471-6.496,3.761-9.573
					c-2.052-3.077-6.496-3.761-10.257-1.709c-3.761,2.051-5.47,6.496-3.761,9.573S22.595,406.388,26.356,404.336"/>
			</g>
		</g>
	</g>
</g>
</svg>
